<?xml version="1.0" standalone="no"?>
<!DOCTYPE svg PUBLIC "-//W3C//DTD SVG 20010904//EN"
 "http://www.w3.org/TR/2001/REC-SVG-20010904/DTD/svg10.dtd">
<svg version="1.0" xmlns="http://www.w3.org/2000/svg"
 width="512.000000pt" height="512.000000pt" viewBox="0 0 512.000000 512.000000"
 preserveAspectRatio="xMidYMid meet">

<g transform="translate(0.000000,512.000000) scale(0.100000,-0.100000)"
fill="#000000" stroke="none">
<path d="M2777 4274 c-34 -34 -35 -50 -15 -174 10 -58 18 -108 18 -112 0 -4
-28 -20 -62 -37 -179 -85 -305 -261 -334 -464 -5 -41 -10 -48 -33 -53 -14 -3
-64 -16 -110 -29 l-83 -23 -53 112 c-28 61 -64 137 -80 170 -21 45 -35 61 -62
73 -65 27 -133 -17 -133 -87 0 -17 33 -102 74 -190 l74 -160 -81 -57 c-146
-101 -276 -245 -358 -397 l-39 -73 -161 58 c-188 69 -225 73 -263 28 -33 -39
-34 -88 -4 -123 16 -18 73 -44 187 -86 90 -33 166 -61 167 -63 2 -2 -3 -37
-10 -78 -40 -209 -30 -372 41 -619 3 -11 -65 -47 -262 -139 -169 -79 -273
-134 -286 -149 -23 -30 -25 -89 -4 -119 8 -12 30 -26 49 -33 42 -14 49 -11
399 154 147 69 272 126 277 126 4 0 20 14 34 31 33 39 33 80 0 154 -71 161
-90 409 -47 585 75 296 262 530 528 656 152 72 233 89 420 88 183 -1 257 -16
399 -82 273 -129 455 -348 538 -650 31 -111 31 -353 0 -464 -82 -301 -265
-522 -536 -649 -142 -66 -228 -84 -406 -84 -131 0 -168 4 -240 23 -110 30
-249 96 -329 158 -119 91 -124 94 -164 94 -67 0 -113 -68 -86 -131 7 -18 44
-57 86 -90 141 -112 275 -179 455 -226 94 -25 118 -27 283 -27 162 0 190 3
275 26 52 14 102 29 110 32 11 5 32 -31 88 -153 92 -198 122 -228 198 -196 75
31 72 83 -16 271 -38 82 -70 154 -70 160 0 6 31 32 70 58 145 100 271 238 362
397 l43 76 159 -58 c88 -33 174 -59 193 -59 49 0 93 45 93 95 0 60 -34 83
-218 149 -150 54 -163 61 -158 80 15 53 36 218 36 286 0 95 -23 245 -50 333
-12 38 -20 70 -18 72 2 2 73 36 158 75 85 39 165 82 178 96 46 52 16 141 -54
158 -25 7 -51 -3 -283 -110 l-84 -38 -16 24 c-9 14 -39 56 -68 94 -45 61 -51
72 -39 86 26 28 75 136 93 201 33 127 14 299 -47 420 l-19 36 90 74 c102 85
119 116 95 172 -17 42 -41 57 -90 57 -28 0 -50 -12 -111 -62 -119 -97 -110
-93 -142 -70 -79 55 -218 106 -317 114 l-30 3 -22 119 c-18 103 -25 123 -48
143 -38 32 -95 31 -129 -3z m355 -496 c158 -73 258 -255 230 -418 -6 -34 -23
-86 -37 -117 l-25 -55 -37 30 c-155 120 -397 213 -600 229 l-83 6 6 36 c10 60
62 158 111 206 48 49 118 89 180 105 70 17 192 7 255 -22z"/>
</g>
</svg>
